<svg xmlns="http://www.w3.org/2000/svg" xmlns:svg="http://www.w3.org/2000/svg" id="svg1635" xml:space="preserve" width="682.66669" height="682.66669" viewBox="0 0 682.66669 682.66669" xmlns:xlink="http://www.w3.org/1999/xlink"><defs id="defs1639"><clipPath clipPathUnits="userSpaceOnUse" id="clipPath1649"><path d="M 0,512 H 512 V 0 H 0 Z" id="path1647"></path></clipPath></defs><g id="g1641" transform="matrix(1.3333333,0,0,-1.3333333,0,682.66667)"><g id="g1643"><g id="g1645" clip-path="url(#clipPath1649)"><g id="g1651" transform="translate(169.1032,200.6704)"><path d="m 0,0 c 0,-44.625 -36.176,-80.802 -80.802,-80.802 -44.625,0 -80.801,36.177 -80.801,80.802 0,44.625 36.176,80.801 80.801,80.801 C -36.176,80.801 0,44.625 0,0" style="fill:#e1d3ce;fill-opacity:1;fill-rule:nonzero;stroke:none" id="path1653"></path></g><g id="g1655" transform="translate(135.0837,136.7549)"><path d="m 0,0 c -7.184,18.846 -25.413,32.24 -46.782,32.24 -21.464,0 -39.759,-13.512 -46.877,-32.49 -0.161,-0.43 -0.316,-0.862 -0.466,-1.296 13.307,-9.641 29.655,-15.34 47.343,-15.34 17.688,0 34.036,5.699 47.343,15.34 C 0.382,-1.027 0.195,-0.511 0,0" style="fill:#ffe177;fill-opacity:1;fill-rule:nonzero;stroke:none" id="path1657"></path></g><g id="g1659" transform="translate(112.9899,224.0259)"><path d="m 0,0 c 0,-16.399 -11.053,-29.693 -24.688,-29.693 -13.635,0 -24.688,13.294 -24.688,29.693 0,16.398 11.053,29.692 24.688,29.692 C -11.053,29.692 0,16.398 0,0" style="fill:#faf7f7;fill-opacity:1;fill-rule:nonzero;stroke:none" id="path1661"></path></g><g id="g1663" transform="translate(504.5002,200.6704)"><path d="m 0,0 c 0,-44.625 -36.176,-80.802 -80.802,-80.802 -44.625,0 -80.802,36.177 -80.802,80.802 0,44.625 36.177,80.801 80.802,80.801 C -36.176,80.801 0,44.625 0,0" style="fill:#e1d3ce;fill-opacity:1;fill-rule:nonzero;stroke:none" id="path1665"></path></g><g id="g1667" transform="translate(353.4802,240.6304)"><path d="m 0,0 c -6.723,-11.788 -10.583,-25.419 -10.583,-39.96 0,-35.817 23.312,-66.171 55.585,-76.767 1.09,6.587 1.666,13.347 1.666,20.242 C 46.668,-57.383 28.43,-22.544 0,0" style="fill:#cdbfba;fill-opacity:1;fill-rule:nonzero;stroke:none" id="path1669"></path></g><g id="g1671" transform="translate(470.4807,136.7549)"><path d="m 0,0 c -7.184,18.846 -25.414,32.24 -46.782,32.24 -21.464,0 -39.76,-13.512 -46.877,-32.49 -0.161,-0.43 -0.317,-0.862 -0.466,-1.296 13.307,-9.641 29.655,-15.34 47.343,-15.34 17.688,0 34.036,5.699 47.343,15.34 C 0.382,-1.027 0.195,-0.511 0,0" style="fill:#fd8087;fill-opacity:1;fill-rule:nonzero;stroke:none" id="path1673"></path></g><g id="g1675" transform="translate(376.8215,136.5044)"><path d="m 0,0 c -0.161,-0.429 -0.316,-0.861 -0.466,-1.296 6.68,-4.839 14.127,-8.683 22.125,-11.314 1.091,6.589 1.668,13.352 1.668,20.251 0,6.19 -0.462,12.271 -1.344,18.216 C 11.957,20.093 4.111,10.962 0,0" style="fill:#fe646f;fill-opacity:1;fill-rule:nonzero;stroke:none" id="path1677"></path></g><g id="g1679" transform="translate(483.3327,490.9297)"><path d="m 0,0 h -452.519 c -7.63,0 -13.816,-6.186 -13.816,-13.816 v -108.957 c 0,-7.631 6.186,-13.816 13.816,-13.816 h 182.212 c 4.096,0 7.88,-2.186 9.928,-5.733 l 26.958,-46.692 c 3.183,-5.513 11.14,-5.513 14.323,0 l 26.958,46.692 c 2.048,3.547 5.833,5.733 9.929,5.733 H 0 c 7.631,0 13.817,6.185 13.817,13.816 V -13.816 C 13.817,-6.186 7.631,0 0,0" style="fill:#ffe177;fill-opacity:1;fill-rule:nonzero;stroke:none" id="path1681"></path></g><g id="g1683" transform="translate(483.3327,490.9297)"><path d="m 0,0 h -16.183 v -102.773 c 0,-7.631 -6.186,-13.816 -13.817,-13.816 h -182.211 c -4.096,0 -7.881,-2.186 -9.929,-5.733 l -24.893,-43.116 13.612,-23.576 c 3.183,-5.513 11.14,-5.513 14.323,0 l 26.958,46.692 c 2.048,3.547 5.833,5.733 9.929,5.733 H 0 c 7.631,0 13.817,6.185 13.817,13.816 V -13.816 C 13.817,-6.186 7.631,0 0,0" style="fill:#ffd15b;fill-opacity:1;fill-rule:nonzero;stroke:none" id="path1685"></path></g><g id="g1687" transform="translate(448.3869,224.0259)"><path d="m 0,0 c 0,-16.399 -11.054,-29.693 -24.688,-29.693 -13.635,0 -24.689,13.294 -24.689,29.693 0,16.398 11.054,29.692 24.689,29.692 C -11.054,29.692 0,16.398 0,0" style="fill:#faf7f7;fill-opacity:1;fill-rule:nonzero;stroke:none" id="path1689"></path></g><g id="g1691" transform="translate(380.1486,144.1455)"><path d="m 0,0 c 0,-67.973 -55.103,-123.075 -123.075,-123.075 -67.973,0 -123.075,55.102 -123.075,123.075 0,67.972 55.102,123.075 123.075,123.075 C -55.103,123.075 0,67.972 0,0" style="fill:#f3eae6;fill-opacity:1;fill-rule:nonzero;stroke:none" id="path1693"></path></g><g id="g1695" transform="translate(257.0734,267.2207)"><path d="m 0,0 c -5.079,0 -10.083,-0.314 -15,-0.912 60.896,-7.4 108.075,-59.269 108.075,-122.163 0,-62.895 -47.179,-114.763 -108.075,-122.164 4.917,-0.597 9.921,-0.911 15,-0.911 67.973,0 123.075,55.102 123.075,123.075 C 123.075,-55.103 67.973,0 0,0" style="fill:#e1d3ce;fill-opacity:1;fill-rule:nonzero;stroke:none" id="path1697"></path></g><g id="g1699" transform="translate(328.3307,46.791)"><path d="m 0,0 c -10.943,28.706 -38.709,49.107 -71.257,49.107 -32.693,0 -60.56,-20.582 -71.402,-49.488 -0.245,-0.654 -0.482,-1.312 -0.71,-1.975 20.268,-14.683 45.169,-23.364 72.112,-23.364 26.942,0 51.842,8.681 72.111,23.364 C 0.582,-1.564 0.297,-0.779 0,0" style="fill:#62dbfb;fill-opacity:1;fill-rule:nonzero;stroke:none" id="path1701"></path></g><g id="g1703" transform="translate(242.0734,21.9819)"><path d="M 0,0 C 14.757,-1.776 29.881,-0.935 44.312,2.61 59.966,6.444 74.443,13.276 87.111,22.453 84.831,29.104 81.589,35.427 77.622,41.129 58.164,18.91 30.844,3.748 0,0" style="fill:#01d0fb;fill-opacity:1;fill-rule:nonzero;stroke:none" id="path1705"></path></g><g id="g1707" transform="translate(294.6779,179.7197)"><path d="m 0,0 c 0,-24.978 -16.836,-45.227 -37.604,-45.227 -20.769,0 -37.605,20.249 -37.605,45.227 0,24.979 16.836,45.227 37.605,45.227 C -16.836,45.227 0,24.979 0,0" style="fill:#faf7f7;fill-opacity:1;fill-rule:nonzero;stroke:none" id="path1709"></path></g><g id="g1711" transform="translate(102.7307,458.2852)"><path d="m 0,0 7.5,-15.197 c 0.633,-1.282 1.856,-2.171 3.271,-2.377 l 16.771,-2.437 c 3.564,-0.518 4.987,-4.898 2.408,-7.412 L 17.815,-39.251 c -1.024,-0.999 -1.491,-2.437 -1.25,-3.847 l 2.865,-16.703 c 0.609,-3.55 -3.117,-6.257 -6.305,-4.58 l -15,7.885 c -1.266,0.666 -2.778,0.666 -4.044,0 l -15,-7.885 c -3.188,-1.677 -6.914,1.03 -6.305,4.58 l 2.865,16.703 c 0.242,1.41 -0.226,2.848 -1.25,3.847 l -12.135,11.828 c -2.579,2.514 -1.156,6.894 2.408,7.412 l 16.771,2.437 c 1.415,0.206 2.639,1.095 3.272,2.377 L -7.793,0 C -6.2,3.229 -1.594,3.229 0,0" style="fill:#faf7f7;fill-opacity:1;fill-rule:nonzero;stroke:none" id="path1713"></path></g><g id="g1715" transform="translate(208.2233,458.2852)"><path d="m 0,0 7.5,-15.197 c 0.633,-1.282 1.856,-2.171 3.272,-2.377 l 16.77,-2.437 c 3.565,-0.518 4.988,-4.898 2.409,-7.412 L 17.815,-39.251 c -1.023,-0.999 -1.491,-2.437 -1.249,-3.847 l 2.865,-16.703 c 0.609,-3.55 -3.118,-6.257 -6.306,-4.58 l -15,7.885 c -1.265,0.666 -2.778,0.666 -4.043,0 l -15,-7.885 c -3.188,-1.677 -6.915,1.03 -6.306,4.58 l 2.865,16.703 c 0.242,1.41 -0.225,2.848 -1.249,3.847 l -12.136,11.828 c -2.579,2.514 -1.156,6.894 2.409,7.412 l 16.77,2.437 c 1.416,0.206 2.639,1.095 3.272,2.377 L -7.793,0 C -6.199,3.229 -1.594,3.229 0,0" style="fill:#faf7f7;fill-opacity:1;fill-rule:nonzero;stroke:none" id="path1717"></path></g><g id="g1719" transform="translate(313.7165,458.2852)"><path d="m 0,0 7.5,-15.197 c 0.633,-1.282 1.856,-2.171 3.272,-2.377 l 16.77,-2.437 c 3.564,-0.518 4.988,-4.898 2.409,-7.412 L 17.815,-39.251 c -1.024,-0.999 -1.491,-2.437 -1.25,-3.847 l 2.865,-16.703 c 0.609,-3.55 -3.117,-6.257 -6.305,-4.58 l -15,7.885 c -1.266,0.666 -2.778,0.666 -4.044,0 l -15,-7.885 c -3.188,-1.677 -6.914,1.03 -6.305,4.58 l 2.865,16.703 c 0.242,1.41 -0.225,2.848 -1.25,3.847 l -12.135,11.828 c -2.579,2.514 -1.156,6.894 2.408,7.412 l 16.771,2.437 c 1.415,0.206 2.639,1.095 3.272,2.377 L -7.793,0 C -6.199,3.229 -1.594,3.229 0,0" style="fill:#faf7f7;fill-opacity:1;fill-rule:nonzero;stroke:none" id="path1721"></path></g><g id="g1723" transform="translate(419.2097,458.2852)"><path d="m 0,0 7.5,-15.197 c 0.633,-1.282 1.856,-2.171 3.271,-2.377 l 16.771,-2.437 c 3.564,-0.518 4.987,-4.898 2.409,-7.412 L 17.815,-39.251 c -1.024,-0.999 -1.491,-2.437 -1.25,-3.847 l 2.865,-16.703 c 0.609,-3.55 -3.117,-6.257 -6.305,-4.58 l -15,7.885 c -1.266,0.666 -2.778,0.666 -4.044,0 l -15,-7.885 c -3.188,-1.677 -6.914,1.03 -6.305,4.58 l 2.865,16.703 c 0.242,1.41 -0.225,2.848 -1.25,3.847 l -12.135,11.828 c -2.579,2.514 -1.156,6.894 2.408,7.412 l 16.771,2.437 c 1.415,0.206 2.639,1.095 3.272,2.377 L -7.793,0 C -6.2,3.229 -1.594,3.229 0,0" style="fill:#faf7f7;fill-opacity:1;fill-rule:nonzero;stroke:none" id="path1725"></path></g><g id="g1727" transform="translate(112.9899,224.0259)"><path d="m 0,0 c 0,-16.399 -11.053,-29.693 -24.688,-29.693 -13.635,0 -24.688,13.294 -24.688,29.693 0,16.398 11.053,29.692 24.688,29.692 C -11.053,29.692 0,16.398 0,0 Z" style="fill:none;stroke:#000000;stroke-width:15;stroke-linecap:round;stroke-linejoin:round;stroke-miterlimit:10;stroke-dasharray:none;stroke-opacity:1" id="path1729"></path></g><g id="g1731" transform="translate(132.4797,142.4736)"><path d="m 0,0 c -8.423,15.78 -25.042,26.521 -44.178,26.521 -21.368,0 -39.597,-13.393 -46.782,-32.238" style="fill:none;stroke:#000000;stroke-width:15;stroke-linecap:round;stroke-linejoin:round;stroke-miterlimit:10;stroke-dasharray:none;stroke-opacity:1" id="path1733"></path></g><g id="g1735" transform="translate(131.8703,132.6094)"><path d="m 0,0 c -12.572,-8.064 -27.524,-12.741 -43.569,-12.741 -44.625,0 -80.801,36.177 -80.801,80.802 0,44.626 36.176,80.801 80.801,80.801 34.709,0 64.306,-21.884 75.747,-52.607" style="fill:none;stroke:#000000;stroke-width:15;stroke-linecap:round;stroke-linejoin:round;stroke-miterlimit:10;stroke-dasharray:none;stroke-opacity:1" id="path1737"></path></g><g id="g1739" transform="translate(448.3869,224.0259)"><path d="m 0,0 c 0,-16.399 -11.054,-29.693 -24.688,-29.693 -13.635,0 -24.689,13.294 -24.689,29.693 0,16.398 11.054,29.692 24.689,29.692 C -11.054,29.692 0,16.398 0,0 Z" style="fill:none;stroke:#000000;stroke-width:15;stroke-linecap:round;stroke-linejoin:round;stroke-miterlimit:10;stroke-dasharray:none;stroke-opacity:1" id="path1741"></path></g><g id="g1743" transform="translate(470.5637,136.5356)"><path d="m 0,0 c -7.126,18.961 -25.414,32.459 -46.865,32.459 -17.061,0 -32.12,-8.537 -41.155,-21.571" style="fill:none;stroke:#000000;stroke-width:15;stroke-linecap:round;stroke-linejoin:round;stroke-miterlimit:10;stroke-dasharray:none;stroke-opacity:1" id="path1745"></path></g><g id="g1747" transform="translate(347.715,228.2373)"><path d="m 0,0 c 11.343,31.286 41.444,53.526 76.617,53.25 44.624,-0.35 80.515,-36.809 80.166,-81.433 -0.35,-44.624 -36.809,-80.515 -81.433,-80.165 -15.034,0.118 -29.077,4.334 -41.077,11.58" style="fill:none;stroke:#000000;stroke-width:15;stroke-linecap:round;stroke-linejoin:round;stroke-miterlimit:10;stroke-dasharray:none;stroke-opacity:1" id="path1749"></path></g><g id="g1751" transform="translate(294.6779,179.7197)"><path d="m 0,0 c 0,-24.978 -16.836,-45.227 -37.604,-45.227 -20.769,0 -37.605,20.249 -37.605,45.227 0,24.979 16.836,45.227 37.605,45.227 C -16.836,45.227 0,24.979 0,0 Z" style="fill:none;stroke:#000000;stroke-width:15;stroke-linecap:round;stroke-linejoin:round;stroke-miterlimit:10;stroke-dasharray:none;stroke-opacity:1" id="path1753"></path></g><g id="g1755" transform="translate(328.4572,46.457)"><path d="m 0,0 c -10.854,28.881 -38.709,49.441 -71.384,49.441 -32.548,0 -60.313,-20.4 -71.257,-49.105" style="fill:none;stroke:#000000;stroke-width:15;stroke-linecap:round;stroke-linejoin:round;stroke-miterlimit:10;stroke-dasharray:none;stroke-opacity:1" id="path1757"></path></g><g id="g1759" transform="translate(380.1486,144.1455)"><path d="m 0,0 c 0,-67.973 -55.103,-123.075 -123.075,-123.075 -67.973,0 -123.075,55.102 -123.075,123.075 0,67.972 55.102,123.075 123.075,123.075 C -55.103,123.075 0,67.972 0,0 Z" style="fill:none;stroke:#000000;stroke-width:15;stroke-linecap:round;stroke-linejoin:round;stroke-miterlimit:10;stroke-dasharray:none;stroke-opacity:1" id="path1761"></path></g><g id="g1763" transform="translate(102.7307,458.2852)"><path d="m 0,0 7.5,-15.197 c 0.633,-1.282 1.856,-2.171 3.271,-2.377 l 16.771,-2.437 c 3.564,-0.518 4.987,-4.898 2.408,-7.412 L 17.815,-39.251 c -1.024,-0.999 -1.491,-2.437 -1.25,-3.847 l 2.865,-16.703 c 0.609,-3.55 -3.117,-6.257 -6.305,-4.58 l -15,7.885 c -1.266,0.666 -2.778,0.666 -4.044,0 l -15,-7.885 c -3.188,-1.677 -6.914,1.03 -6.305,4.58 l 2.865,16.703 c 0.242,1.41 -0.226,2.848 -1.25,3.847 l -12.135,11.828 c -2.579,2.514 -1.156,6.894 2.408,7.412 l 16.771,2.437 c 1.415,0.206 2.639,1.095 3.272,2.377 L -7.793,0 C -6.2,3.229 -1.594,3.229 0,0 Z" style="fill:none;stroke:#000000;stroke-width:15;stroke-linecap:round;stroke-linejoin:round;stroke-miterlimit:10;stroke-dasharray:none;stroke-opacity:1" id="path1765"></path></g><g id="g1767" transform="translate(208.2233,458.2852)"><path d="m 0,0 7.5,-15.197 c 0.633,-1.282 1.856,-2.171 3.272,-2.377 l 16.77,-2.437 c 3.565,-0.518 4.988,-4.898 2.409,-7.412 L 17.815,-39.251 c -1.023,-0.999 -1.491,-2.437 -1.249,-3.847 l 2.865,-16.703 c 0.609,-3.55 -3.118,-6.257 -6.306,-4.58 l -15,7.885 c -1.265,0.666 -2.778,0.666 -4.043,0 l -15,-7.885 c -3.188,-1.677 -6.915,1.03 -6.306,4.58 l 2.865,16.703 c 0.242,1.41 -0.225,2.848 -1.249,3.847 l -12.136,11.828 c -2.579,2.514 -1.156,6.894 2.409,7.412 l 16.77,2.437 c 1.416,0.206 2.639,1.095 3.272,2.377 L -7.793,0 C -6.199,3.229 -1.594,3.229 0,0 Z" style="fill:none;stroke:#000000;stroke-width:15;stroke-linecap:round;stroke-linejoin:round;stroke-miterlimit:10;stroke-dasharray:none;stroke-opacity:1" id="path1769"></path></g><g id="g1771" transform="translate(313.7165,458.2852)"><path d="m 0,0 7.5,-15.197 c 0.633,-1.282 1.856,-2.171 3.272,-2.377 l 16.77,-2.437 c 3.564,-0.518 4.988,-4.898 2.409,-7.412 L 17.815,-39.251 c -1.024,-0.999 -1.491,-2.437 -1.25,-3.847 l 2.865,-16.703 c 0.609,-3.55 -3.117,-6.257 -6.305,-4.58 l -15,7.885 c -1.266,0.666 -2.778,0.666 -4.044,0 l -15,-7.885 c -3.188,-1.677 -6.914,1.03 -6.305,4.58 l 2.865,16.703 c 0.242,1.41 -0.225,2.848 -1.25,3.847 l -12.135,11.828 c -2.579,2.514 -1.156,6.894 2.408,7.412 l 16.771,2.437 c 1.415,0.206 2.639,1.095 3.272,2.377 L -7.793,0 C -6.199,3.229 -1.594,3.229 0,0 Z" style="fill:none;stroke:#000000;stroke-width:15;stroke-linecap:round;stroke-linejoin:round;stroke-miterlimit:10;stroke-dasharray:none;stroke-opacity:1" id="path1773"></path></g><g id="g1775" transform="translate(419.2097,458.2852)"><path d="m 0,0 7.5,-15.197 c 0.633,-1.282 1.856,-2.171 3.271,-2.377 l 16.771,-2.437 c 3.564,-0.518 4.987,-4.898 2.409,-7.412 L 17.815,-39.251 c -1.024,-0.999 -1.491,-2.437 -1.25,-3.847 l 2.865,-16.703 c 0.609,-3.55 -3.117,-6.257 -6.305,-4.58 l -15,7.885 c -1.266,0.666 -2.778,0.666 -4.044,0 l -15,-7.885 c -3.188,-1.677 -6.914,1.03 -6.305,4.58 l 2.865,16.703 c 0.242,1.41 -0.225,2.848 -1.25,3.847 l -12.135,11.828 c -2.579,2.514 -1.156,6.894 2.408,7.412 l 16.771,2.437 c 1.415,0.206 2.639,1.095 3.272,2.377 L -7.793,0 C -6.2,3.229 -1.594,3.229 0,0 Z" style="fill:none;stroke:#000000;stroke-width:15;stroke-linecap:round;stroke-linejoin:round;stroke-miterlimit:10;stroke-dasharray:none;stroke-opacity:1" id="path1777"></path></g><g id="g1779" transform="translate(430.1486,354.3403)"><path d="m 0,0 h 53.185 c 7.63,0 13.816,6.186 13.816,13.816 v 108.957 c 0,7.631 -6.186,13.816 -13.817,13.816 h -408.328" style="fill:none;stroke:#000000;stroke-width:15;stroke-linecap:round;stroke-linejoin:round;stroke-miterlimit:10;stroke-dasharray:none;stroke-opacity:1" id="path1781"></path></g><g id="g1783" transform="translate(45.0051,490.9297)"><path d="m 0,0 h -14.191 c -7.631,0 -13.817,-6.186 -13.817,-13.816 v -108.957 c 0,-7.631 6.186,-13.816 13.817,-13.816 h 182.212 c 4.095,0 7.88,-2.186 9.928,-5.733 l 26.958,-46.692 c 3.182,-5.513 11.14,-5.513 14.323,0 l 26.958,46.692 c 2.048,3.547 5.832,5.733 9.928,5.733 h 99.028" style="fill:none;stroke:#000000;stroke-width:15;stroke-linecap:round;stroke-linejoin:round;stroke-miterlimit:10;stroke-dasharray:none;stroke-opacity:1" id="path1785"></path></g></g></g></g></svg>