<svg xmlns="http://www.w3.org/2000/svg" viewBox="0 0 64 64" width="512" height="512" xmlns:xlink="http://www.w3.org/1999/xlink"><g id="car"><path d="M32,55h0a1,1,0,0,1-.8945-.5527L25.7607,43.7661a2.8958,2.8958,0,0,0-1.4062-1.3667,19.0022,19.0022,0,1,1,15.3047-.0063,2.9214,2.9214,0,0,0-1.419,1.3725L32.8945,54.4478A1.0009,1.0009,0,0,1,32,55ZM31.9766,7.9985A16.8064,16.8064,0,0,0,20.666,12.33a17.005,17.005,0,0,0,4.4951,28.24A4.9056,4.9056,0,0,1,27.55,42.8716L32,51.7656l4.4512-8.895a4.9281,4.9281,0,0,1,2.4-2.3071A17.0056,17.0056,0,0,0,33.9482,8.1079,17.9157,17.9157,0,0,0,31.9766,7.9985Z"></path><path d="M32,39A14,14,0,1,1,46,25,14.0158,14.0158,0,0,1,32,39Zm0-26A12,12,0,1,0,44,25,12.0134,12.0134,0,0,0,32,13Z"></path><path d="M32,59c-8.9932,0-26-1.3584-26-6.5,0-4.2554,12.12-6.1343,22.5-6.45a1.0242,1.0242,0,0,1,1.03.9692,1.0007,1.0007,0,0,1-.97,1.03C14.8711,48.4658,8,51.127,8,52.5,8,54.0273,16.4707,57,32,57s24-2.9727,24-4.5c0-1.373-6.8672-4.0342-20.55-4.4507a1,1,0,0,1,.0293-2l.0312.0005C45.8857,46.3662,58,48.2446,58,52.5,58,57.6416,40.9932,59,32,59Z"></path><path d="M38,30H26a2.0023,2.0023,0,0,1-2-2V24a2.0023,2.0023,0,0,1,2-2H38a2.0023,2.0023,0,0,1,2,2v4A2.0023,2.0023,0,0,1,38,30ZM26,24v4H38.001L38,24Z"></path><path d="M37,24H27a1,1,0,0,1-.9863-1.1646l.5547-3.3286A2.9918,2.9918,0,0,1,29.5273,17h4.9454a2.9918,2.9918,0,0,1,2.9589,2.5063l.5547,3.3291A1,1,0,0,1,37,24Zm-8.8193-2h7.6386l-.36-2.1641A.9977.9977,0,0,0,34.4727,19H29.5273a.9977.9977,0,0,0-.9863.8364Z"></path><path d="M25.8555,23.854a.9989.9989,0,0,1-.9092-.5815L24.3594,22H24a1,1,0,0,1,0-2h1a1,1,0,0,1,.9082.5815l.8545,1.854a1,1,0,0,1-.9072,1.4185Z"></path><path d="M38.1445,23.854a1,1,0,0,1-.9072-1.4185l.8545-1.854A1,1,0,0,1,39,20h1a1,1,0,0,1,0,2h-.3594l-.5869,1.2725A1,1,0,0,1,38.1445,23.854Z"></path><circle cx="28" cy="26" r="1"></circle><circle cx="36" cy="26" r="1"></circle><path d="M28.75,33h-1.5A2.2528,2.2528,0,0,1,25,30.75V29a1,1,0,0,1,1-1h4a1,1,0,0,1,1,1v1.75A2.2528,2.2528,0,0,1,28.75,33ZM27,30v.75a.25.25,0,0,0,.25.25h1.5a.25.25,0,0,0,.25-.25V30Z"></path><path d="M36.75,33h-1.5A2.2528,2.2528,0,0,1,33,30.75V29a1,1,0,0,1,1-1h4a1,1,0,0,1,1,1v1.75A2.2528,2.2528,0,0,1,36.75,33ZM35,30v.75a.25.25,0,0,0,.25.25h1.5a.25.25,0,0,0,.25-.25V30Z"></path><path d="M33,27H31a1,1,0,0,1,0-2h2a1,1,0,0,1,0,2Z"></path></g></svg>