<svg xmlns="http://www.w3.org/2000/svg" xmlns:svg="http://www.w3.org/2000/svg" id="svg2679" xml:space="preserve" width="682.66669" height="682.66669" viewBox="0 0 682.66669 682.66669" xmlns:xlink="http://www.w3.org/1999/xlink"><defs id="defs2683"><clipPath clipPathUnits="userSpaceOnUse" id="clipPath2693"><path d="M 0,512 H 512 V 0 H 0 Z" id="path2691"></path></clipPath></defs><g id="g2685" transform="matrix(1.3333333,0,0,-1.3333333,0,682.66667)"><g id="g2687"><g id="g2689" clip-path="url(#clipPath2693)"><g id="g2695" transform="translate(452,390)"><path d="M 0,0 C -27.601,0 -50,-22.4 -50,-50 V -330 H 50 V -50 C 50,-22.39 27.609,0 0,0" style="fill:#ececf1;fill-opacity:1;fill-rule:nonzero;stroke:none" id="path2697"></path></g><g id="g2699" transform="translate(60,390)"><path d="M 0,0 C -27.601,0 -50,-22.4 -50,-50 V -330 H 50 V -50 C 50,-22.39 27.61,0 0,0" style="fill:#ececf1;fill-opacity:1;fill-rule:nonzero;stroke:none" id="path2701"></path></g><g id="g2703" transform="translate(260,190)"><path d="m 0,0 h 16 126 v 120 h -268 l 17.38,-16.55 c 0,0 74.059,-70.54 108.62,-103.45" style="fill:#7fe881;fill-opacity:1;fill-rule:nonzero;stroke:none" id="path2705"></path></g><g id="g2707" transform="translate(110,250)"><path d="m 0,0 v -190 c 0,27.61 -22.39,50 -50,50 -27.61,0 -50,-22.39 -50,-50 0,-29.077 25.248,-50 52.85,-50 H 0 l 126,120 z" style="fill:#76e2f8;fill-opacity:1;fill-rule:nonzero;stroke:none" id="path2709"></path></g><g id="g2711" transform="translate(465.3203,108.2803)"><path d="m 0,0 c -33.36,8.62 -63.32,-16.33 -63.32,-48.28 v 70 h -86 l -120,-120 h 256 c 27.62,0 50,22.38 50,50 C 36.68,-24.172 20.369,-5.263 0,0" style="fill:#76e2f8;fill-opacity:1;fill-rule:nonzero;stroke:none" id="path2713"></path></g><g id="g2715" transform="translate(402,190)"><path d="m 0,0 v -60 h -86 l -120,-120 h -86 l 126,120 -126,120 v 60 h 24 l 17.38,-16.55 c 0,0 74.059,-70.54 108.62,-103.45 h 16 z" style="fill:#fed2a4;fill-opacity:1;fill-rule:nonzero;stroke:none" id="path2717"></path></g><g id="g2719" transform="translate(256,502)"><path d="M 0,0 C 49.71,0 90,-40.29 90,-90 90,-114.49 68.17,-156.09 46.01,-192 23.18,-229.02 0,-260 0,-260 c 0,0 -23.18,30.98 -46.01,68 -22.16,35.91 -43.99,77.51 -43.99,102 0,49.71 40.29,90 90,90" style="fill:#ff637b;fill-opacity:1;fill-rule:nonzero;stroke:none" id="path2721"></path></g><g id="g2723" transform="translate(256,452)"><path d="m 0,0 c 22.06,0 40,-17.94 40,-40 0,-22.06 -17.94,-40 -40,-40 -22.06,0 -40,17.94 -40,40 0,22.06 17.94,40 40,40" style="fill:#ececf1;fill-opacity:1;fill-rule:nonzero;stroke:none" id="path2725"></path></g><g id="g2727" transform="translate(10,284)"><path d="M 0,0 V 56 C 0,69.8 5.6,82.3 14.65,91.35 23.7,100.4 36.2,106 50,106 77.61,106 100,83.61 100,56 V 26" style="fill:none;stroke:#000000;stroke-width:20;stroke-linecap:round;stroke-linejoin:round;stroke-miterlimit:10;stroke-dasharray:none;stroke-opacity:1" id="path2729"></path></g><g id="g2731" transform="translate(110,250)"><path d="m 0,0 v -190 c 0,27.61 -22.39,50 -50,50 -27.61,0 -50,-22.39 -50,-50 0,-1.7 0.09,-3.42 0.26,-5.16 2.6,-26.02 26.44,-44.84 52.59,-44.84 H 0" style="fill:none;stroke:#000000;stroke-width:20;stroke-linecap:round;stroke-linejoin:round;stroke-miterlimit:10;stroke-dasharray:none;stroke-opacity:1" id="path2733"></path></g><g id="g2735" transform="translate(196,10)"><path d="m 0,0 h 256 c 27.62,0 50,22.38 50,50" style="fill:none;stroke:#000000;stroke-width:20;stroke-linecap:round;stroke-linejoin:round;stroke-miterlimit:10;stroke-dasharray:none;stroke-opacity:1" id="path2737"></path></g><g id="g2739" transform="translate(402,130)"><path d="m 0,0 v -70 c 0,31.95 29.96,56.9 63.32,48.28 16.84,-4.35 30.61,-18.12 34.96,-34.96 1.17,-4.53 1.72,-8.99 1.72,-13.32 v 280 c 0,27.61 -22.39,50 -50,50 C 36.2,260 23.7,254.4 14.65,245.35 5.6,236.3 0,223.8 0,210 V 180 60" style="fill:none;stroke:#000000;stroke-width:20;stroke-linecap:round;stroke-linejoin:round;stroke-miterlimit:10;stroke-dasharray:none;stroke-opacity:1" id="path2741"></path></g><g id="g2743" transform="translate(10,204)"><path d="M 0,0 V -144" style="fill:none;stroke:#000000;stroke-width:20;stroke-linecap:round;stroke-linejoin:round;stroke-miterlimit:10;stroke-dasharray:none;stroke-opacity:1" id="path2745"></path></g><g id="g2747" transform="translate(402,310)"><path d="M 0,0 H -99.99" style="fill:none;stroke:#000000;stroke-width:20;stroke-linecap:round;stroke-linejoin:round;stroke-miterlimit:10;stroke-dasharray:none;stroke-opacity:1" id="path2749"></path></g><g id="g2751" transform="translate(402,190)"><path d="m 0,0 v -60 h -86 l -120,-120 h -86 l 126,120 -126,120 v 60 h 24 l 17.38,-16.55 c 0,0 74.059,-70.54 108.62,-103.45 h 16 z" style="fill:none;stroke:#000000;stroke-width:20;stroke-linecap:round;stroke-linejoin:round;stroke-miterlimit:10;stroke-dasharray:none;stroke-opacity:1" id="path2753"></path></g><g id="g2755" transform="translate(209.9902,310)"><path d="M 0,0 H -75.99" style="fill:none;stroke:#000000;stroke-width:20;stroke-linecap:round;stroke-linejoin:round;stroke-miterlimit:10;stroke-dasharray:none;stroke-opacity:1" id="path2757"></path></g><g id="g2759" transform="translate(302.0098,310)"><path d="m 0,0 c 22.16,35.91 43.99,77.51 43.99,102 0,49.71 -40.29,90 -90,90 -49.71,0 -90,-40.29 -90,-90 0,-24.49 21.83,-66.09 43.99,-102 22.831,-37.02 46.01,-68 46.01,-68 0,0 23.18,30.98 46.01,68 z" style="fill:none;stroke:#000000;stroke-width:20;stroke-linecap:round;stroke-linejoin:round;stroke-miterlimit:10;stroke-dasharray:none;stroke-opacity:1" id="path2761"></path></g><g id="g2763" transform="translate(256,372)"><path d="M 0,0 C 22.06,0 40,17.94 40,40 40,62.06 22.06,80 0,80 -22.06,80 -40,62.06 -40,40 -40,17.94 -22.06,0 0,0 Z" style="fill:none;stroke:#000000;stroke-width:20;stroke-linecap:round;stroke-linejoin:round;stroke-miterlimit:10;stroke-dasharray:none;stroke-opacity:1" id="path2765"></path></g><g id="g2767" transform="translate(10,254)"><path d="m 0,0 c 5.52,0 10,-4.48 10,-10 0,-5.52 -4.48,-10 -10,-10 -5.52,0 -10,4.48 -10,10 0,5.52 4.48,10 10,10" style="fill:#000000;fill-opacity:1;fill-rule:nonzero;stroke:none" id="path2769"></path></g></g></g></g></svg>