<svg xmlns="http://www.w3.org/2000/svg" height="512" viewBox="0 0 512 512" width="512" xmlns:xlink="http://www.w3.org/1999/xlink"><g id="outline"><path d="m88.014 339.7a174.75 174.75 0 0 0 119.832 47.242c2.113 0 4.237-.038 6.359-.112a174.716 174.716 0 0 0 98.621-34.469l119.174 111.05q.559.52 1.139 1.013a31.737 31.737 0 0 0 20.649 7.576c.384 0 .771-.006 1.156-.02a32 32 0 0 0 20.688-55.391l-119.174-111.054a176.085 176.085 0 0 0 -28.471-223.36c-71-66.162-182.587-62.225-248.747 8.773a176 176 0 0 0 8.774 248.752zm376.71 88.6a16 16 0 0 1 -21.816 23.411l-81.938-76.361 21.815-23.411zm-93.644-87.269-21.816 23.412-23.941-22.31q5.928-5.32 11.438-11.212t10.378-12.2zm-280.135-239.175c60.148-64.544 161.589-68.122 226.134-7.976a160.059 160.059 0 0 1 22.589 208.006c-.05.065-.094.134-.141.2a162.384 162.384 0 0 1 -31.458 33.726l-.04.034a160.014 160.014 0 0 1 -217.084-233.99z"></path><path d="m88 218.935h17.013a32 32 0 0 0 61.974 0h74.026a32 32 0 0 0 62.423-2.046l19.094-6.365a8 8 0 0 0 5.47-7.589v-24a32.053 32.053 0 0 0 -26.849-31.586l-8.191-16.384a28.843 28.843 0 0 0 -25.939-16.03h-80.521a29.136 29.136 0 0 0 -23.2 11.6l-15.662 20.882-39.607 4.951a32.05 32.05 0 0 0 -28.031 31.753v26.814a8 8 0 0 0 8 8zm48 8a16 16 0 1 1 16-16 16.019 16.019 0 0 1 -16 16zm136 0a16 16 0 1 1 16-16 16.019 16.019 0 0 1 -16 16zm-24-96h19.021a12.927 12.927 0 0 1 11.628 7.186l4.407 8.814h-35.056zm-71.9 5.2a13.058 13.058 0 0 1 10.4-5.2h45.5v16h-64zm-80.1 47.986a16.025 16.025 0 0 1 14.016-15.876l42.48-5.31h143.504a16.018 16.018 0 0 1 16 16v18.233l-9.78 3.261a32 32 0 0 0 -61.207 2.506h-74.026a32 32 0 0 0 -61.974 0h-9.013z"></path><path d="m296 258.935h-176a8 8 0 0 0 -8 8v32a8 8 0 0 0 8 8h176a8 8 0 0 0 8-8v-32a8 8 0 0 0 -8-8zm-40 32h-128v-16h128zm32 0h-16v-16h16z"></path></g></svg>