<svg xmlns="http://www.w3.org/2000/svg" viewBox="0 0 32 32" xmlns:xlink="http://www.w3.org/1999/xlink"><g id="rating-2" data-name="rating"><g><path d="m26.99337 23.8414h.84657a1.42581 1.42581 0 0 0 0-2.85162h-.84657.84651a1.426 1.426 0 0 0 .00006-2.85161h-4.75222a1.18736 1.18736 0 0 1 -1.18729-1.17372l-.05933-5.1616a1.43431 1.43431 0 0 0 -2.868.01649c.06558 3.43023-2.48092 5.761-5.5695 6.98718v9.57966l3.29718 1.15847h10.29259.84651a1.426 1.426 0 0 0 .00006-2.85161 1.42581 1.42581 0 1 0 0-2.85162z" fill="#ffddce"></path><path d="m26.99316 30.04443h-10.29248a.50164.50164 0 0 1 -.16552-.02832l-3.29688-1.1582a.49936.49936 0 0 1 -.33447-.47168v-9.57959a.50005.50005 0 0 1 .31543-.46484c1.605-.63721 5.32959-2.54688 5.2539-6.5127a1.93416 1.93416 0 0 1 3.86817-.03222l.05908 5.16162a.68976.68976 0 0 0 .6875.67968h4.75195a1.94031 1.94031 0 0 1 1.30176 3.35938 1.9437 1.9437 0 0 1 -.00879 2.84375 1.94382 1.94382 0 0 1 .00781 2.84473 1.93913 1.93913 0 0 1 -1.29246 3.35839zm-10.207-1h11.05368a.92581.92581 0 0 0 -.00484-1.85156c-.43041-.03212-1.33565.18428-1.34182-.5.00885-.6878.91509-.46677 1.34668-.5a.92588.92588 0 0 0 -.00006-1.85156h-.84664a.50009.50009 0 0 1 0-1h.84665a.92588.92588 0 0 0 0-1.85156c-.4348-.03283-1.33685.18719-1.34662-.5.00812-.68665.91535-.46745 1.34668-.5a.92581.92581 0 0 0 -.00779-1.85157h-4.74419a1.69342 1.69342 0 0 1 -1.6875-1.668l-.05908-5.16162a.93431.93431 0 0 0 -1.86816.01079c.06005 3.13277-1.96485 5.79-5.56934 7.32222v8.89014z"></path><path d="m10.2378 27.47409a3.28263 3.28263 0 0 0 .1632 1.44571h-8.9424v-10.64463h8.9424a3.2819 3.2819 0 0 0 -.16323 1.44571 3.29555 3.29555 0 0 1 .16323-1.44568 1.588 1.588 0 0 1 3.008.68792v9.26881a1.588 1.588 0 0 1 -3.008.6878 3.27335 3.27335 0 0 1 -.1632-1.44564z" fill="#ee596b"></path><path d="m11.77637 30.30371a1.97224 1.97224 0 0 1 -1.66944-.88379h-8.64843a.49971.49971 0 0 1 -.5-.5v-10.64453a.49971.49971 0 0 1 .5-.5h8.644a2.10662 2.10662 0 0 1 3.8066 1.19588v9.26066a2.07009 2.07009 0 0 1 -2.13273 2.07178zm-.90967-1.56494a1.08631 1.08631 0 0 0 2.0425-.49848v-9.2774a1.08521 1.08521 0 0 0 -2.05175-.48394 3.22191 3.22191 0 0 0 -.11965 1.25542.50026.50026 0 0 1 -1-.02395c.00265-.3065-.01593-.61431.01465-.935h-7.79395v9.64453h7.791c-.02636-.30686-.00992-.62942-.01172-.93506a.50022.50022 0 0 1 1-.02148 3.00571 3.00571 0 0 0 .12892 1.27536z"></path><g fill="#f9da41"><path d="m27.386 9.315.975 1.976 2.18.317-1.578 1.538.373 2.171-1.95-1.025-1.951 1.025.373-2.171-1.578-1.538 2.18-.317z"></path><path d="m20.151 2.182.975 1.976 2.18.317-1.578 1.538.373 2.172-1.95-1.025-1.951 1.025.373-2.172-1.578-1.538 2.18-.317z"></path><path d="m12.206 9.315.976 1.976 2.18.317-1.578 1.538.373 2.171-1.951-1.025-1.95 1.025.372-2.171-1.577-1.538 2.18-.317z"></path></g><path d="m25.43506 15.81738a.50341.50341 0 0 1 -.49267-.58447l.32812-1.91309-1.38965-1.35449a.49982.49982 0 0 1 .27734-.85254l1.91992-.27929.85938-1.73975a.49972.49972 0 0 1 .89648 0l.85889 1.73975 1.92041.27929a.49982.49982 0 0 1 .27734.85254l-1.39013 1.355.32812 1.9126a.49995.49995 0 0 1 -.72558.52686l-1.71729-.90284a16.78852 16.78852 0 0 1 -1.95068.96043zm-.13086-3.86084.85254.83106c.3247.2398-.02112 1.14921-.05762 1.61572.41864-.17033 1.19038-.79046 1.51951-.55373l1.05325.55373-.20118-1.17332c-.12189-.38534.69139-.91652.9961-1.27344-.48045-.11281-1.424-.06224-1.5542-.4448l-.52686-1.0674c-.25616.42261-.5 1.336-.90378 1.34082z"></path><path d="m18.2002 8.68506a.50349.50349 0 0 1 -.49267-.58448l.32811-1.91258-1.39013-1.355a.49982.49982 0 0 1 .27734-.85254l1.92041-.2793.85889-1.73974a.52006.52006 0 0 1 .89648 0l.85937 1.73975 1.91992.2793a.49982.49982 0 0 1 .27734.85254l-1.38964 1.35449.32813 1.91309a.49974.49974 0 0 1 -.7251.52685l-1.71826-.90283a16.7057 16.7057 0 0 1 -1.95019.96045zm1.95019-2.02539a7.34512 7.34512 0 0 1 1.28661.61133l-.20117-1.17334c-.12189-.38534.69138-.91653.99609-1.27344-.48014-.11279-1.42477-.06231-1.55419-.4448l-.52734-1.06742c-.25511.42092-.49924 1.33571-.9033 1.34083l-1.17775.17138.85254.831c.32469.23981-.02112 1.14921-.05762 1.61573a7.28785 7.28785 0 0 1 1.28613-.61127z"></path><path d="m10.25586 15.81738a.50341.50341 0 0 1 -.49267-.58447l.32812-1.91309-1.38965-1.35449a.49983.49983 0 0 1 .27734-.85254l1.91993-.27929.85937-1.73975a.49973.49973 0 0 1 .89649 0l.85888 1.73975 1.92041.27929a.49983.49983 0 0 1 .27735.85254l-1.39014 1.355.32812 1.9126a.49995.49995 0 0 1 -.72558.52686l-1.71729-.90284a16.78773 16.78773 0 0 1 -1.95068.96043zm-.13086-3.86084.85254.83106c.3247.2398-.02112 1.14921-.05762 1.61572.41865-.17033 1.19038-.79046 1.51952-.55373l1.05324.55373-.20118-1.17332c-.12189-.38534.69139-.91652.9961-1.27344-.48045-.11281-1.424-.06224-1.5542-.4448l-.52686-1.0674c-.25615.42261-.5 1.336-.90378 1.34082z"></path></g></g><g id="survey"><path d="m2.3121 32.1051a.5003.5003 0 0 0 0-1 .5003.5003 0 0 0 0 1z"></path></g></svg>